<svg xmlns="http://www.w3.org/2000/svg" viewBox="0 0 81.23 73.11"><defs><style>.cls-1{fill:#231f20;}.cls-2{fill:#c94e28;}</style></defs><g id="Layer_2" data-name="Layer 2"><g id="Icons"><path class="cls-1" d="M8.12,73.11a7.82,7.82,0,0,1-5.73-2.39A7.82,7.82,0,0,1,0,65V0L6.8,6.8,13.5,0l6.81,6.8L27.11,0l6.7,6.8L40.61,0l6.81,6.8L54.12,0l6.8,6.8L67.73,0l6.7,6.8L81.23,0V65a8.16,8.16,0,0,1-8.12,8.13ZM44.68,65H73.11V56.86H44.68Zm0-16.24H73.11V40.61H44.68ZM8.12,32.49h65V20.31h-65Z"/><circle class="cls-2" cx="21.35" cy="53.27" r="12.79"/></g></g></svg>