<svg xmlns="http://www.w3.org/2000/svg" viewBox="0 0 52 57.77"><defs><style>.cls-1{fill:#231f20;}</style></defs><g id="Layer_2" data-name="Layer 2"><g id="logos"><path class="cls-1" d="M43.33,57.77a8.62,8.62,0,0,1-8.67-8.66,7.65,7.65,0,0,1,.08-1,5.27,5.27,0,0,1,.21-1L14.59,35.24a9.65,9.65,0,0,1-2.75,1.7,8.36,8.36,0,0,1-3.17.61A8.33,8.33,0,0,1,2.53,35,8.32,8.32,0,0,1,0,28.89a8.33,8.33,0,0,1,2.53-6.14,8.33,8.33,0,0,1,6.14-2.53,8.55,8.55,0,0,1,3.17.61,9.65,9.65,0,0,1,2.75,1.7L35,10.69a5.27,5.27,0,0,1-.21-1,7.63,7.63,0,0,1-.08-1,8.37,8.37,0,0,1,2.53-6.14,8.72,8.72,0,0,1,12.28,0A8.37,8.37,0,0,1,52,8.67a8.36,8.36,0,0,1-2.53,6.13,8.68,8.68,0,0,1-9.32,1.92A9.6,9.6,0,0,1,37.41,15L17,26.86a5.25,5.25,0,0,1,.22,1,7.84,7.84,0,0,1,0,2.09,5.25,5.25,0,0,1-.22,1L37.41,42.75a9.6,9.6,0,0,1,2.74-1.7,8.57,8.57,0,0,1,3.18-.61,8.68,8.68,0,0,1,6.14,14.81A8.38,8.38,0,0,1,43.33,57.77Z"/></g></g></svg>