<svg xmlns="http://www.w3.org/2000/svg" viewBox="0 0 73.11 73.11"><defs><style>.cls-1{fill:#bcbec0;}.cls-2{fill:#231f20;}</style></defs><g id="Layer_2" data-name="Layer 2"><g id="Icons"><circle class="cls-1" cx="36.55" cy="27.42" r="12.79"/><path class="cls-2" d="M14.07,55.2a38,38,0,0,1,10.42-5.62,36.36,36.36,0,0,1,24.13,0A38,38,0,0,1,59,55.2a28.06,28.06,0,0,0,5-8.5A28.63,28.63,0,0,0,65.8,36.55a28.16,28.16,0,0,0-8.55-20.69,28.16,28.16,0,0,0-20.7-8.55,28.16,28.16,0,0,0-20.69,8.55A28.16,28.16,0,0,0,7.31,36.55,28.43,28.43,0,0,0,14.07,55.2ZM36.55,73.11A35.55,35.55,0,0,1,22.3,70.23,36.52,36.52,0,0,1,2.88,50.81,35.6,35.6,0,0,1,0,36.55,35.55,35.55,0,0,1,2.88,22.3,36.43,36.43,0,0,1,22.3,2.88,35.55,35.55,0,0,1,36.55,0,35.6,35.6,0,0,1,50.81,2.88,36.52,36.52,0,0,1,70.23,22.3a35.55,35.55,0,0,1,2.88,14.25,35.6,35.6,0,0,1-2.88,14.26A36.61,36.61,0,0,1,50.81,70.23,35.6,35.6,0,0,1,36.55,73.11Z"/></g></g></svg>